PathFileType	4	(X/Y/Z)	/Users/itak/Documents/Research/Walk-IL/dataset/trc/00178_00008.trc
DataRate	CameraRate	NumFrames	NumMarkers	Units	OrigDataRate	OrigDataStartFrame	OrigNumFrames
100.000000	100.000000	4	53	mm	100.000000	740	846
Frame#	Time	RPSI			LPSI			L3			STRN			T10			C7			CLAV			RBAK			LBAK			LSHO			LUPA			LAEL			LAOL			LWTS			LWPS			LFRA			LIFD			LHPS			LHTS			RSHO			RUPA			RAEL			RAOL			RWTS			RWPS			RFRA			RIFD			RHTS			RHPS			RBHD			LFHD			RFHD			LBHD			LHIP			RHIP			RASI			LASI			LKNE			LTHI			LANK			LTIP			LTOE			LMT1			LMT5			LHEE			RKNE			RTHI			RANK			RTIP			RTOE			RMT1			RMT5			RHEE			
		X1	Y1	Z1	X2	Y2	Z2	X3	Y3	Z3	X4	Y4	Z4	X5	Y5	Z5	X6	Y6	Z6	X7	Y7	Z7	X8	Y8	Z8	X9	Y9	Z9	X10	Y10	Z10	X11	Y11	Z11	X12	Y12	Z12	X13	Y13	Z13	X14	Y14	Z14	X15	Y15	Z15	X16	Y16	Z16	X17	Y17	Z17	X18	Y18	Z18	X19	Y19	Z19	X20	Y20	Z20	X21	Y21	Z21	X22	Y22	Z22	X23	Y23	Z23	X24	Y24	Z24	X25	Y25	Z25	X26	Y26	Z26	X27	Y27	Z27	X28	Y28	Z28	X29	Y29	Z29	X30	Y30	Z30	X31	Y31	Z31	X32	Y32	Z32	X33	Y33	Z33	X34	Y34	Z34	X35	Y35	Z35	X36	Y36	Z36	X37	Y37	Z37	X38	Y38	Z38	X39	Y39	Z39	X40	Y40	Z40	X41	Y41	Z41	X42	Y42	Z42	X43	Y43	Z43	X44	Y44	Z44	X45	Y45	Z45	X46	Y46	Z46	X47	Y47	Z47	X48	Y48	Z48	X49	Y49	Z49	X50	Y50	Z50	X51	Y51	Z51	X52	Y52	Z52	X53	Y53	Z53	

741	7.4	-746.7968139648438	1058.418701171875	979.113525390625	-702.7840576171875	1056.216186523438	863.4982299804688	-726.0177001953125	1092.708129882812	921.9664306640625	-488.3565979003906	1307.751831054688	1007.364562988281	-762.4689331054688	1245.33251953125	895.955810546875	-704.9757690429688	1516.2041015625	900.9216918945312	-514.45361328125	1419.865966796875	985.3359375	-802.8648681640625	1340.105346679688	982.086669921875	-671.911865234375	1490.611694335938	806.5130004882812	-569.3385620117188	1479.870727539062	763.5327758789062	-564.9552001953125	1344.904174804688	687.2293701171875	-533.1981811523438	1125.52490234375	687.5947265625	-609.0048828125	1110.158447265625	729.705078125	-435.3327026367188	910.1864013671875	793.3121337890625	-483.4788818359375	876.6222534179688	720.7529296875	-505.7857055664062	1015.786071777344	693.1524047851562	-428.3469848632812	738.7401733398438	843.82666015625	-461.7169799804688	810.6025390625	742.7828369140625	-412.0451049804688	831.125	789.974365234375	-713.62451171875	1499.371215820312	1092.279418945312	-759.5079345703125	1436.368286132812	1148.935546875	-805.093994140625	1153.971313476562	1204.017944335938	-767.7619018554688	1140.225830078125	1113.911865234375	-674.7920532226562	926.140869140625	1258.861450195312	-762.646240234375	911.9972534179688	1267.708129882812	-791.3565673828125	1083.015991210938	1234.647705078125	-653.471923828125	736.1329956054688	1256.442138671875	-657.0623168945312	832.414306640625	1282.699096679688	-737.9515380859375	829.1942138671875	1280.589233398438	-677.92431640625	1677.119750976562	1002.274841308594	-488.8938293457031	1735.161376953125	912.2268676757812	-517.0712890625	1735.123657226562	1038.438110351562	-654.7982177734375	1684.281616210938	866.5770263671875	-558.8278198242188	991.9871215820312	793.5260620117188	-642.3515625	1016.378601074219	1152.013671875	-548.6060180664062	1044.611083984375	1127.619995117188	-464.7155151367188	1032.20654296875	884.8788452148438	-592.8970336914062	497.433837890625	833.4739990234375	-568.6644287109375	639.0113525390625	807.593017578125	-696.920166015625	43.63068008422852	811.4613647460938	-640.5921630859375	277.8092651367188	809.908935546875	-491.6701354980469	42.99250793457031	892.2068481445312	-552.4808959960938	40.80777359008789	926.1688232421875	-581.4002685546875	39.17694854736328	801.18701171875	-764.6927490234375	43.4194450378418	864.422607421875	-662.72607421875	515.365966796875	1106.966552734375	-608.4381713867188	780.3444213867188	1166.473876953125	-764.699462890625	40.71969223022461	1047.497802734375	-654.9371337890625	397.8605346679688	1085.4921875	-544.4661254882812	47.25078964233398	1099.712768554688	-576.8832397460938	46.74224090576172	1038.35693359375	-674.75537109375	37.79011535644531	1124.026733398438	-785.0857543945312	40.93032455444336	963.69873046875	
742	7.41	-747.0628662109375	1058.54052734375	978.885009765625	-703.0106811523438	1056.264404296875	863.3238525390625	-726.3218994140625	1092.808837890625	921.7190551757812	-488.5723266601562	1307.760986328125	1007.183532714844	-762.6549072265625	1245.443725585938	895.7271728515625	-705.1295166015625	1516.298217773438	900.7183837890625	-514.5850830078125	1419.866577148438	985.17529296875	-803.0272216796875	1340.205810546875	981.86328125	-672.0170288085938	1490.656616210938	806.3138427734375	-569.4332275390625	1479.890991210938	763.2982788085938	-565.0617065429688	1344.774047851562	687.2063598632812	-533.381591796875	1125.178955078125	688.482177734375	-609.270263671875	1110.031494140625	730.4837646484375	-435.2574768066406	910.9323120117188	796.2333984375	-483.0829772949219	876.5707397460938	723.790283203125	-505.7370910644531	1015.46630859375	694.9503784179688	-428.0203247070312	740.1597290039062	848.3922119140625	-461.1254272460938	810.8088989257812	746.516845703125	-411.68310546875	831.8992309570312	793.6446533203125	-713.7854614257812	1499.427734375	1092.079345703125	-759.6571044921875	1436.383178710938	1148.747436523438	-804.8867797851562	1153.659545898438	1203.476440429688	-767.7008056640625	1140.248657226562	1113.269897460938	-673.1857299804688	926.3723754882812	1257.446411132812	-760.9155883789062	911.692626953125	1266.522705078125	-790.7435302734375	1082.709594726562	1233.950927734375	-650.6806640625	736.5637817382812	1254.524536132812	-654.8079223632812	832.753173828125	1281.00439453125	-735.6467895507812	829.0556640625	1279.1728515625	-678.1940307617188	1677.139282226562	1002.115539550781	-489.2795104980469	1735.36767578125	912.0040893554688	-517.3740234375	1735.278198242188	1038.252563476562	-655.0621337890625	1684.345458984375	866.4251098632812	-557.8357543945312	991.7977905273438	794.3834228515625	-642.7142333984375	1016.421752929688	1151.7587890625	-548.95361328125	1044.6103515625	1127.427612304688	-465.0511169433594	1032.171508789062	884.6901245117188	-593.1656494140625	497.4104614257812	833.2517700195312	-569.0109252929688	638.9744873046875	807.354736328125	-696.943359375	43.58212661743164	811.4111938476562	-640.7081298828125	277.7675476074219	809.7872924804688	-491.6981506347656	43.002197265625	892.1975708007812	-552.5078125	40.81545639038086	926.1589965820312	-581.3929443359375	39.15912246704102	801.1655883789062	-764.7071533203125	43.38900756835938	864.3682250976562	-663.0938720703125	515.4188232421875	1106.850219726562	-608.8192138671875	780.3787841796875	1166.318603515625	-764.7051391601562	40.69944763183594	1047.506225585938	-655.2671508789062	397.9644470214844	1085.404541015625	-544.4716186523438	47.26716995239258	1099.725952148438	-576.9041137695312	46.75894927978516	1038.367919921875	-674.7664184570312	37.77953338623047	1124.030883789062	-785.0824584960938	40.9095573425293	963.6987915039062	
743	7.42	-747.3575439453125	1058.6728515625	978.6548461914062	-703.2432250976562	1056.320556640625	863.1596069335938	-726.6187133789062	1092.917846679688	921.4841918945312	-488.7947082519531	1307.770263671875	1007.000610351562	-762.8473510742188	1245.584106445312	895.4780883789062	-705.2584228515625	1516.4072265625	900.517333984375	-514.7100830078125	1419.87255859375	985.0191650390625	-803.1727905273438	1340.3232421875	981.6400146484375	-672.1071166992188	1490.719360351562	806.1212158203125	-569.4930419921875	1479.927856445312	763.0812377929688	-565.1380004882812	1344.671020507812	687.18603515625	-533.5543212890625	1124.870239257812	689.3391723632812	-609.513427734375	1109.934204101562	731.2291870117188	-435.2577209472656	911.6434936523438	799.03125	-482.7683715820312	876.5350341796875	726.6910400390625	-505.7092895507812	1015.176879882812	696.677490234375	-427.9012145996094	741.5833129882812	852.7652587890625	-460.6501770019531	811.0187377929688	750.0850830078125	-411.3796691894531	832.6468505859375	797.1607055664062	-713.9368896484375	1499.503662109375	1091.87890625	-759.7925415039062	1436.4130859375	1148.568115234375	-804.6878662109375	1153.35205078125	1202.914794921875	-767.6375122070312	1140.29931640625	1112.596557617188	-671.54248046875	926.6348266601562	1255.964965820312	-759.1317138671875	911.4002685546875	1265.286499023438	-790.1258544921875	1082.38427734375	1233.225830078125	-647.8118286132812	737.0477905273438	1252.508178710938	-652.50048828125	833.1259765625	1279.223754882812	-733.2744750976562	828.9541625976562	1277.686645507812	-678.4307250976562	1677.171875	1001.961730957031	-489.6375732421875	1735.586303710938	911.7885131835938	-517.6549682617188	1735.44189453125	1038.0703125	-655.312255859375	1684.420166015625	866.275146484375	-556.83154296875	991.5931396484375	795.2552490234375	-643.0934448242188	1016.470397949219	1151.507202148438	-549.31689453125	1044.614868164062	1127.238403320312	-465.399169921875	1032.141479492188	884.5082397460938	-593.419677734375	497.3882141113281	833.032958984375	-569.3536987304688	638.94775390625	807.1103515625	-696.960693359375	43.53171539306641	811.3557739257812	-640.82275390625	277.7263488769531	809.6599731445312	-491.7258911132812	43.0115966796875	892.1875	-552.5308837890625	40.8266716003418	926.1456298828125	-581.3810424804688	39.13855743408203	801.1423950195312	-764.7197265625	43.36350631713867	864.309326171875	-663.406982421875	515.483642578125	1106.747924804688	-609.2198486328125	780.4324951171875	1166.162719726562	-764.7080688476562	40.68357086181641	1047.515380859375	-655.5421752929688	398.0635681152344	1085.3310546875	-544.47607421875	47.28328323364258	1099.7392578125	-576.921630859375	46.77374267578125	1038.377563476562	-674.7728881835938	37.76955032348633	1124.033935546875	-785.0783081054688	40.89657592773438	963.69873046875	
744	7.43	-747.6873168945312	1058.819702148438	978.420166015625	-703.4913940429688	1056.39208984375	862.993896484375	-726.9057006835938	1093.03466796875	921.2620239257812	-489.0219421386719	1307.781372070312	1006.818176269531	-763.0450439453125	1245.749145507812	895.2158203125	-705.3655395507812	1516.52880859375	900.3185424804688	-514.8350219726562	1419.884643554688	984.8665161132812	-803.30859375	1340.457641601562	981.416748046875	-672.1873779296875	1490.797485351562	805.9356079101562	-569.526611328125	1479.977905273438	762.8825073242188	-565.1884155273438	1344.592407226562	687.1666259765625	-533.7066040039062	1124.599365234375	690.1679077148438	-609.7356567382812	1109.863037109375	731.935791015625	-435.3327026367188	912.3130493164062	801.696533203125	-482.5287170410156	876.5119018554688	729.4415893554688	-505.6979064941406	1014.919372558594	698.3260498046875	-428.0129699707031	743.0167846679688	856.9275512695312	-460.2916870117188	811.2271118164062	753.470703125	-411.1421203613281	833.3603515625	800.5133666992188	-714.0836791992188	1499.5986328125	1091.680908203125	-759.9202880859375	1436.455322265625	1148.39501953125	-804.4900512695312	1153.051147460938	1202.340942382812	-767.5718383789062	1140.377563476562	1111.910522460938	-669.8671264648438	926.9295654296875	1254.426879882812	-757.3070678710938	911.1197509765625	1264.006958007812	-789.5012817382812	1082.037475585938	1232.478271484375	-644.887939453125	737.5759887695312	1250.402099609375	-650.1532592773438	833.5269775390625	1277.3671875	-730.8468627929688	828.8767700195312	1276.135986328125	-678.645751953125	1677.218994140625	1001.805847167969	-489.9597778320312	1735.811401367188	911.584228515625	-517.9223022460938	1735.612915039062	1037.887573242188	-655.5545043945312	1684.505981445312	866.1185302734375	-555.9566650390625	991.399658203125	796.0264282226562	-643.4840698242188	1016.521728515625	1151.257446289062	-549.6983032226562	1044.626220703125	1127.051147460938	-465.7530212402344	1032.11572265625	884.3364868164062	-593.6614990234375	497.36865234375	832.8218383789062	-569.6857299804688	638.9312133789062	806.867919921875	-696.9720458984375	43.48026657104492	811.296142578125	-640.9386596679688	277.6879272460938	809.527099609375	-491.7525329589844	43.02097320556641	892.1759643554688	-552.5484619140625	40.84128570556641	926.12939453125	-581.3662719726562	39.11592483520508	801.1182250976562	-764.7304077148438	43.34156036376953	864.2474365234375	-663.6722412109375	515.5560913085938	1106.657470703125	-609.6451416015625	780.5068969726562	1166.005493164062	-764.7091674804688	40.67109680175781	1047.524291992188	-655.766357421875	398.1534423828125	1085.269165039062	-544.4812622070312	47.2984619140625	1099.7529296875	-576.935791015625	46.78703689575195	1038.386474609375	-674.77587890625	37.76021194458008	1124.036376953125	-785.07275390625	40.89013671875	963.697998046875	
